<?xml version="1.0" encoding="UTF-8" standalone="no"?><!DOCTYPE svg PUBLIC "-//W3C//DTD SVG 1.1//EN" "http://www.w3.org/Graphics/SVG/1.1/DTD/svg11.dtd"><svg width="100%" height="100%" viewBox="0 0 2008 1539" version="1.1" xmlns="http://www.w3.org/2000/svg" xmlns:xlink="http://www.w3.org/1999/xlink" xml:space="preserve" xmlns:serif="http://www.serif.com/" style="fill-rule:evenodd;clip-rule:evenodd;stroke-linejoin:round;stroke-miterlimit:2;"><g id="Logo"><path id="Football" d="M264.658,384.505l47.772,59.535c-89.48,80.4 -148.869,163.115 -185.212,247.602c41.22,-53.447 88.317,-104.935 147.934,-152.25c-11.02,130.244 -10.122,240.624 -2.747,340.209l33.354,19.62c-6.977,-126.658 -4.124,-274.765 11.38,-450.473l114.169,135.359c-8.245,128.531 -5.997,255.541 4.854,377.009c186.076,84.101 400.72,120.558 645.655,111.464l380.134,219.252l1.114,0.758c-75.799,32.637 -159.095,58.776 -250.987,77.465c-117.34,18.754 -232.712,25.694 -343.814,7.017c-386.999,-59.012 -659.255,-238.805 -809.249,-547.296c-19.877,-54.63 -19.104,-112.21 4.678,-173.076c51.528,-106.661 119.039,-196.853 200.965,-272.195Zm1451.55,755.588l-140.61,-159.862c17.079,-252.067 10.673,-470.173 -20.787,-648.155c-134.013,-91.591 -293.357,-141.389 -475.781,-153.849c-71.051,-3.519 -126.865,-1.959 -170.448,3.679c-146.515,13.789 -274.003,51.855 -382.587,114.04l-71.413,-46.865c104.689,-57.57 223.673,-100.413 355.211,-130.322c125.687,-21.302 238.396,-23.136 339.136,-7.016c367.624,44.807 649.005,214.806 823.282,540.279c26.62,78.742 22.497,157.484 -25.727,236.226c-65.083,94.067 -140.527,179.155 -230.276,251.845Zm178.18,-446.871c-48.441,-114.559 -125.651,-205.245 -223.273,-278.994c12.576,213.129 10.771,422.423 -1.178,629.012c83.797,-53.491 140.001,-103.859 168.339,-151.072c-36.491,32.374 -76.63,62.468 -129.884,84.365c9.529,-153.214 13.769,-305.37 2.355,-454.396c80.024,50.759 141.287,107.77 183.641,171.085Zm-1266.73,-328.301l-0,-33.859c-0,-15.812 12.837,-28.649 28.648,-28.649c15.811,0 28.648,12.837 28.648,28.649l0,33.781c25.98,-8.065 52.854,-15.044 80.533,-21.045l0,-47.071c0,-17.977 14.595,-32.572 32.572,-32.572c17.977,-0 32.572,14.595 32.572,32.572l0,34.923c24.377,-3.857 49.277,-7.077 74.648,-9.727l-0,-45.307c-0,-19.601 15.913,-35.515 35.515,-35.515c19.601,0 35.515,15.914 35.515,35.515l-0,39.398c3.472,-0.22 6.951,-0.431 10.438,-0.633c20.93,-0.686 45.614,-0.622 73.084,-0l3.878,0.136l-0,-39.882c-0,-19.601 15.914,-35.515 35.515,-35.515c19.601,0 35.515,15.914 35.515,35.515l-0,44.02c32.022,2.58 63.225,6.074 93.286,10.382l0,-31.839c0,-18.247 14.815,-33.062 33.063,-33.062c18.247,-0 33.062,14.815 33.062,33.062l0,42.966c28.177,5.484 54.966,11.707 80.043,18.565l0,-29.648c0,-15.541 12.617,-28.158 28.158,-28.158c15.54,-0 28.157,12.617 28.157,28.158l0,47.13c29.446,10.371 55.414,21.723 77.146,33.817c3.13,17.05 2.267,32.326 -6.376,44.144c-23.307,-8.803 -46.888,-17.074 -70.77,-24.761l0,37.085c0,15.541 -12.617,28.158 -28.157,28.158c-15.541,-0 -28.158,-12.617 -28.158,-28.158l0,-53.944c-26.295,-7.279 -52.965,-13.831 -80.043,-19.589l0,43.613c0,18.247 -14.815,33.062 -33.062,33.062c-18.248,0 -33.063,-14.815 -33.063,-33.062l0,-55.931c-30.553,-4.889 -61.634,-8.752 -93.286,-11.504l-0,49.286c-0,19.602 -15.914,35.515 -35.515,35.515c-19.601,0 -35.515,-15.913 -35.515,-35.515l-0,-53.527c-30.906,-1.527 -59.621,-1.411 -85.3,0.983l-2.1,0.167l-0,53.358c-0,19.602 -15.914,35.515 -35.515,35.515c-19.602,0 -35.515,-15.913 -35.515,-35.515l-0,-46.393c-26.26,3.092 -51.116,6.636 -74.648,10.609l0,54.423c0,17.977 -14.595,32.572 -32.572,32.572c-17.977,0 -32.572,-14.595 -32.572,-32.572l0,-41.606c-22.282,5.068 -43.163,10.588 -62.737,16.53l-0.611,0.575l-74.481,-49.625Z"/><path id="USB" d="M796.181,780.891c-7.994,28.927 -34.622,50.1 -66.049,49.879c-37.54,-0.265 -67.803,-30.957 -67.539,-68.497c0.264,-37.54 30.957,-67.804 68.497,-67.539c29.339,0.206 54.233,18.998 63.584,45.119l1.148,-0.173l84.61,-0.613l82.158,-94.42c11.309,-12.303 25.928,-21.521 34.723,-22.102l86.25,0.029c3.311,-7.272 8.485,-13.814 15.399,-18.85c21.414,-15.598 51.462,-10.876 67.06,10.538c15.598,21.414 10.876,51.462 -10.538,67.06c-21.414,15.597 -51.462,10.876 -67.06,-10.538c-1.738,-2.387 -3.225,-4.881 -4.463,-7.45l-74.146,-0.264c-4.996,0.544 -10.182,1.144 -13.503,6.714l-60.699,69.896l336.603,1.226l0.404,-0.039l0.209,-42.879l106.07,61.925l-106.683,63.765l0.198,-40.518l-264.955,-0.007l3.233,5.627l50.258,60.923c5.562,6.553 18.715,12.534 27.625,15.068l45.395,0.124l-0,-23.265l88.878,-0l-0,88.878l-88.878,-0l-0,-27.143l-61.719,-0.17c-12.606,-2.145 -23.054,-7.168 -30.638,-16.01c-3.169,-1.875 -7.34,-6.253 -12.184,-12.314l-82.242,-94.041l-151.006,0.061Z"/><path d="M0,0l935.866,615.572l-74.555,85.347l-42.673,-0c-19.419,-26.338 -42.293,-40.928 -68.252,-45.03c-24.187,-3.287 -47.672,0.451 -70.551,10.244c-27.815,16.816 -45.767,40.206 -53.962,70.101l-625.873,-736.234Zm795.287,846.757l24.749,-25.152l110.852,-0.981c26.962,34.216 54.395,66.075 82.404,95.059c7.591,7.404 18.535,15.288 33.451,23.74c13.578,3.33 29.227,5.106 46.99,5.297l0.428,25.601l166.352,-0.603l0.2,-95.431l99.431,-57.058l647.832,721.056l-1212.69,-691.528Z" style="fill:#c8902a;"/></g></svg>